<svg width="14" height="16" viewBox="0 0 14 16" fill="none" xmlns="http://www.w3.org/2000/svg">
<path d="M0.333313 9.66667C0.333313 8.20833 0.680535 6.90972 1.37498 5.77083C2.06942 4.63194 2.83331 3.67361 3.66665 2.89583C4.49998 2.11806 5.26387 1.52417 5.95831 1.11417L6.99998 0.5V3.25C6.99998 3.76389 7.17359 4.17 7.52081 4.46833C7.86804 4.76667 8.25692 4.91611 8.68748 4.91667C8.92359 4.91667 9.14943 4.86806 9.36498 4.77083C9.58054 4.67361 9.77831 4.51389 9.95831 4.29167L10.3333 3.83333C11.3333 4.41667 12.1389 5.22555 12.75 6.26C13.3611 7.29444 13.6666 8.43 13.6666 9.66667C13.6666 10.8889 13.368 12.0036 12.7708 13.0108C12.1736 14.0181 11.3889 14.8128 10.4166 15.395C10.6528 15.0617 10.8369 14.6969 10.9691 14.3008C11.1014 13.9047 11.1672 13.485 11.1666 13.0417C11.1666 12.4861 11.0625 11.9617 10.8541 11.4683C10.6458 10.975 10.3472 10.5342 9.95831 10.1458L6.99998 7.25L4.06248 10.1458C3.6597 10.5486 3.35415 10.9931 3.14581 11.4792C2.93748 11.9653 2.83331 12.4861 2.83331 13.0417C2.83331 13.4861 2.89942 13.9064 3.03165 14.3025C3.16387 14.6986 3.34776 15.0631 3.58331 15.3958C2.61109 14.8125 1.82637 14.0172 1.22915 13.01C0.631924 12.0028 0.333313 10.8883 0.333313 9.66667ZM6.99998 9.58333L8.77081 11.3125C9.00693 11.5486 9.18748 11.8125 9.31248 12.1042C9.43748 12.3958 9.49998 12.7083 9.49998 13.0417C9.49998 13.7222 9.25693 14.3019 8.77081 14.7808C8.2847 15.2597 7.69443 15.4994 6.99998 15.5C6.30554 15.5 5.71526 15.2603 5.22915 14.7808C4.74304 14.3014 4.49998 13.7217 4.49998 13.0417C4.49998 12.7222 4.56248 12.4131 4.68748 12.1142C4.81248 11.8153 4.99304 11.5481 5.22915 11.3125L6.99998 9.58333Z" fill="#FF8743"/>
</svg>
